<svg xmlns="http://www.w3.org/2000/svg" width="32" height="29" viewBox="0 0 32 29">
  <metadata><?xpacket begin="﻿" id="W5M0MpCehiHzreSzNTczkc9d"?>
<x:xmpmeta xmlns:x="adobe:ns:meta/" x:xmptk="Adobe XMP Core 5.6-c142 79.160924, 2017/07/13-01:06:39        ">
   <rdf:RDF xmlns:rdf="http://www.w3.org/1999/02/22-rdf-syntax-ns#">
      <rdf:Description rdf:about=""/>
   </rdf:RDF>
</x:xmpmeta>
                                                                                                    
                                                                                                    
                                                                                                    
                                                                                                    
                                                                                                    
                                                                                                    
                                                                                                    
                                                                                                    
                                                                                                    
                                                                                                    
                                                                                                    
                                                                                                    
                                                                                                    
                                                                                                    
                                                                                                    
                                                                                                    
                                                                                                    
                                                                                                    
                                                                                                    
                                                                                                    
                           
<?xpacket end="w"?></metadata>
<defs>
    <style>
      .cls-1 {
        fill: #222;
        fill-rule: evenodd;
      }
    </style>
  </defs>
  <path id="Forma_1" data-name="Forma 1" class="cls-1" d="M1.184,2.364H4.577L9.41,19.819a1.184,1.184,0,0,0,1.144.867H25.409a1.186,1.186,0,0,0,1.085-.709L31.9,7.565a1.194,1.194,0,0,0-.1-1.123,1.176,1.176,0,0,0-.986-0.532H14.4a1.182,1.182,0,1,0,0,2.364H29L24.62,18.322H11.442L6.609,0.867A1.183,1.183,0,0,0,5.464,0H1.184A1.182,1.182,0,1,0,1.184,2.364ZM9.43,29a2.679,2.679,0,1,0-2.683-2.679A2.684,2.684,0,0,0,9.43,29ZM26.2,29h0.2A2.775,2.775,0,1,0,26.2,29Z"/>
</svg>
