<svg xmlns="http://www.w3.org/2000/svg" width="45" height="32" viewBox="0 0 45 32">
  <metadata><?xpacket begin="﻿" id="W5M0MpCehiHzreSzNTczkc9d"?>
<x:xmpmeta xmlns:x="adobe:ns:meta/" x:xmptk="Adobe XMP Core 5.6-c142 79.160924, 2017/07/13-01:06:39        ">
   <rdf:RDF xmlns:rdf="http://www.w3.org/1999/02/22-rdf-syntax-ns#">
      <rdf:Description rdf:about=""/>
   </rdf:RDF>
</x:xmpmeta>
                                                                                                    
                                                                                                    
                                                                                                    
                                                                                                    
                                                                                                    
                                                                                                    
                                                                                                    
                                                                                                    
                                                                                                    
                                                                                                    
                                                                                                    
                                                                                                    
                                                                                                    
                                                                                                    
                                                                                                    
                                                                                                    
                                                                                                    
                                                                                                    
                                                                                                    
                                                                                                    
                           
<?xpacket end="w"?></metadata>
<defs>
    <style>
      .cls-1 {
        fill: #f16d7f;
        fill-rule: evenodd;
      }
    </style>
  </defs>
  <path id="Forma_1" data-name="Forma 1" class="cls-1" d="M11.111,25.417a0.934,0.934,0,0,0-.929.94,0.893,0.893,0,1,1-.892-0.9,0.94,0.94,0,0,0,0-1.88,2.784,2.784,0,1,0,2.749,2.783A0.934,0.934,0,0,0,11.111,25.417Zm26.472,0a0.934,0.934,0,0,0-.929.94,0.893,0.893,0,1,1-.892-0.9,0.94,0.94,0,0,0,0-1.88,2.784,2.784,0,1,0,2.749,2.783A0.934,0.934,0,0,0,37.582,25.417ZM44.871,13.4L41.311,7.29c-1.221-2.062-2.373-3.266-4.679-3.47a0.913,0.913,0,0,0-.237-0.031H29.272V1.88A1.871,1.871,0,0,0,27.415,0H1.857A1.871,1.871,0,0,0,0,1.88V25.417A1.871,1.871,0,0,0,1.857,27.3H3.794a5.562,5.562,0,0,0,10.99,0H30.266a5.562,5.562,0,0,0,10.99,0h2.816A0.934,0.934,0,0,0,45,26.357V13.874A0.95,0.95,0,0,0,44.871,13.4ZM41.335,17a0.935,0.935,0,0,1,.929-0.94h0.879v1.85H41.335V17Zm1.251-3.823h-8.53a0.918,0.918,0,0,0-.19-0.019,0.954,0.954,0,0,1-.947-0.959V8.43h6.9ZM1.857,1.88H27.415V25.417H14.784a5.562,5.562,0,0,0-10.99,0H1.857V1.88ZM9.29,30.12a3.763,3.763,0,1,1,3.716-3.763A3.744,3.744,0,0,1,9.29,30.12Zm26.472,0a3.763,3.763,0,1,1,3.716-3.763A3.744,3.744,0,0,1,35.762,30.12Zm5.494-4.7a5.562,5.562,0,0,0-10.99,0H29.272V5.669H35.9a3.351,3.351,0,0,1,2.578.881H31.99a0.934,0.934,0,0,0-.929.94V12.2a2.829,2.829,0,0,0,2.575,2.83,0.917,0.917,0,0,0,.23.029h6.38A2.828,2.828,0,0,0,39.478,17v1.851a0.934,0.934,0,0,0,.929.94h2.737v5.629H41.256ZM4.681,5.669H24.591a0.94,0.94,0,0,0,0-1.88H4.681A0.94,0.94,0,0,0,4.681,5.669Z"/>
</svg>
