<svg xmlns="http://www.w3.org/2000/svg" width="40" height="40" viewBox="0 0 40 40">
  <metadata><?xpacket begin="﻿" id="W5M0MpCehiHzreSzNTczkc9d"?>
<x:xmpmeta xmlns:x="adobe:ns:meta/" x:xmptk="Adobe XMP Core 5.6-c142 79.160924, 2017/07/13-01:06:39        ">
   <rdf:RDF xmlns:rdf="http://www.w3.org/1999/02/22-rdf-syntax-ns#">
      <rdf:Description rdf:about=""/>
   </rdf:RDF>
</x:xmpmeta>
                                                                                                    
                                                                                                    
                                                                                                    
                                                                                                    
                                                                                                    
                                                                                                    
                                                                                                    
                                                                                                    
                                                                                                    
                                                                                                    
                                                                                                    
                                                                                                    
                                                                                                    
                                                                                                    
                                                                                                    
                                                                                                    
                                                                                                    
                                                                                                    
                                                                                                    
                                                                                                    
                           
<?xpacket end="w"?></metadata>
<defs>
    <style>
      .cls-1 {
        fill: #f16d7f;
        fill-rule: evenodd;
      }
    </style>
  </defs>
  <path id="Forma_1" data-name="Forma 1" class="cls-1" d="M24.783,18.5c-1.894,0-3.459,1.631-3.459,4.564,0.021,2.909,1.565,4.361,3.348,4.361,1.83,0,3.416-1.521,3.416-4.587C28.088,20.067,26.789,18.5,24.783,18.5Zm-0.066,7.74c-1.19,0-1.895-1.409-1.873-3.265,0-1.835.661-3.289,1.873-3.289,1.343,0,1.85,1.476,1.85,3.244C26.566,24.854,25.994,26.241,24.717,26.241Zm-5.949-9.418c0-2.773-1.322-4.341-3.327-4.341-1.895,0-3.458,1.634-3.458,4.542,0.022,2.93,1.564,4.384,3.348,4.384C17.183,21.408,18.768,19.887,18.768,16.823Zm-5.243.135c0-1.836.641-3.289,1.85-3.289,1.344,0,1.85,1.476,1.85,3.245,0,1.923-.573,3.31-1.85,3.31C14.166,20.222,13.481,18.813,13.525,16.958Zm10.09-4.32L15.2,27.387h1.233l8.417-14.749H23.615Zm12.97,10.335L40,20l-3.412-2.971,2.21-3.975-4.209-1.6,0.732-4.5L30.823,6.9,30,2.412,25.761,3.927,23.472,0,20,2.9,16.528,0,14.239,3.926,10,2.411,9.177,6.9l-4.5.044,0.733,4.5-4.21,1.6,2.21,3.973L0,20l3.412,2.972L1.2,26.946l4.209,1.6L4.682,33.054,9.177,33.1,10,37.588l4.241-1.515L16.527,40,20,37.1,23.47,40l2.289-3.929L30,37.589,30.82,33.1l4.5-.046-0.733-4.5,4.21-1.6Zm-2.666,3.774L32.46,27.3l0.254,1.563,0.372,2.287-2.282.022-1.561.016-0.285,1.558L28.54,35.026l-2.151-.77-1.469-.524-0.792,1.359-1.161,1.994-1.762-1.474L20,34.6l-1.205,1.008-1.762,1.474L15.87,35.092l-0.793-1.36-1.469.524-2.153.769L11.04,32.747l-0.285-1.558-1.561-.017L6.912,31.15l0.372-2.289L7.538,27.3l-1.46-.556-2.133-.811,1.121-2.014,0.766-1.379L4.649,21.508,2.915,20,4.65,18.487l1.182-1.031L5.066,16.078,3.946,14.064l2.135-.813,1.459-.556L7.286,11.133,6.914,8.846,9.2,8.824l1.56-.017L11.042,7.25l0.417-2.278L13.61,5.74l1.469,0.524L15.871,4.9l1.161-1.993,1.762,1.473L20,5.392,21.2,4.385l1.762-1.473,1.162,1.994,0.793,1.359,1.468-.524,2.152-.769,0.416,2.278,0.285,1.557L30.8,8.825l2.283,0.024-0.372,2.286L32.46,12.7l1.459,0.555,2.134,0.813L34.933,16.08l-0.766,1.379,1.183,1.031L37.083,20,35.349,21.51l-1.183,1.03,0.766,1.378,1.121,2.015Z"/>
</svg>
