<svg xmlns="http://www.w3.org/2000/svg" width="49" height="35" viewBox="0 0 49 35">
  <metadata><?xpacket begin="﻿" id="W5M0MpCehiHzreSzNTczkc9d"?>
<x:xmpmeta xmlns:x="adobe:ns:meta/" x:xmptk="Adobe XMP Core 5.6-c142 79.160924, 2017/07/13-01:06:39        ">
   <rdf:RDF xmlns:rdf="http://www.w3.org/1999/02/22-rdf-syntax-ns#">
      <rdf:Description rdf:about=""/>
   </rdf:RDF>
</x:xmpmeta>
                                                                                                    
                                                                                                    
                                                                                                    
                                                                                                    
                                                                                                    
                                                                                                    
                                                                                                    
                                                                                                    
                                                                                                    
                                                                                                    
                                                                                                    
                                                                                                    
                                                                                                    
                                                                                                    
                                                                                                    
                                                                                                    
                                                                                                    
                                                                                                    
                                                                                                    
                                                                                                    
                           
<?xpacket end="w"?></metadata>
<defs>
    <style>
      .cls-1 {
        fill: #f16d7f;
        fill-rule: evenodd;
      }
    </style>
  </defs>
  <path id="Forma_1" data-name="Forma 1" class="cls-1" d="M43.374,8.549a4.6,4.6,0,0,0-4.647,4.542,4.468,4.468,0,0,0,1.56,3.372l-5.862,2.06-8.342-9.7a4.545,4.545,0,0,0,3.1-4.265,4.648,4.648,0,0,0-9.293,0,4.552,4.552,0,0,0,3.046,4.251l-8.355,9.716-5.86-2.059a4.469,4.469,0,0,0,1.559-3.372A4.6,4.6,0,0,0,5.632,8.549a4.527,4.527,0,0,0-1.1,8.944V29.808a1.078,1.078,0,0,0,.05.242,1.561,1.561,0,0,0-.05.389c0,4.421,17.925,4.55,19.968,4.55s19.968-.13,19.968-4.55a1.6,1.6,0,0,0-.05-0.389,0.906,0.906,0,0,0,.05-0.242V17.493A4.526,4.526,0,0,0,43.374,8.549ZM22.149,4.557a2.387,2.387,0,0,1,4.772,0A2.387,2.387,0,0,1,22.149,4.557ZM14.556,20.865a1.154,1.154,0,0,0,1.246-.331l8.7-10.12,8.7,10.12a1.154,1.154,0,0,0,1.245.332l7.76-2.731v9.957c-4.886-2.126-16.114-2.2-17.707-2.2s-12.823.079-17.707,2.2V18.135ZM24.5,32.779c-8.707,0-14.253-1.013-16.562-1.865a4.627,4.627,0,0,1-1-.475c0.722-.522,3.062-1.235,6.968-1.736a83.878,83.878,0,0,1,10.59-.6,83.913,83.913,0,0,1,10.592.6c3.906,0.5,6.247,1.213,6.967,1.736a4.425,4.425,0,0,1-.995.475C38.759,31.766,33.214,32.779,24.5,32.779ZM3.249,13.091a2.387,2.387,0,1,1,2.387,2.334A2.363,2.363,0,0,1,3.249,13.091Zm40.125,2.334a2.333,2.333,0,1,1,2.387-2.334A2.364,2.364,0,0,1,43.374,15.425Z"/>
</svg>
